<?xml version="1.0" standalone="no"?>
<!DOCTYPE svg PUBLIC "-//W3C//DTD SVG 20010904//EN"
 "http://www.w3.org/TR/2001/REC-SVG-20010904/DTD/svg10.dtd">
<svg version="1.0" xmlns="http://www.w3.org/2000/svg"
 width="512.000000pt" height="512.000000pt" viewBox="0 0 512.000000 512.000000"
 preserveAspectRatio="xMidYMid meet">

<g transform="translate(0.000000,512.000000) scale(0.100000,-0.100000)"
fill="#888888" stroke="none">
<path d="M3600 4556 c-15 -8 -58 -72 -109 -161 -98 -170 -104 -200 -52 -247
37 -34 87 -37 123 -9 13 11 61 82 106 159 91 155 100 191 59 237 -27 32 -90
42 -127 21z"/>
<path d="M3104 4306 c-140 -40 -258 -108 -342 -200 l-49 -54 -303 -30 -303
-29 -46 35 c-98 75 -240 127 -380 138 -104 8 -148 -8 -178 -62 -57 -103 -78
-293 -50 -431 12 -58 12 -65 -5 -90 -34 -50 -85 -157 -106 -223 -35 -108 -44
-179 -40 -317 l3 -132 -37 -15 c-26 -10 -43 -25 -54 -49 -33 -69 7 -128 99
-147 31 -6 60 -16 63 -22 5 -8 -1 -9 -17 -5 -13 4 -47 10 -76 13 -50 6 -54 5
-88 -29 -39 -39 -44 -70 -20 -116 19 -37 43 -46 217 -80 136 -27 150 -32 192
-67 26 -21 45 -42 44 -45 -2 -4 -25 -22 -52 -41 -81 -54 -109 -97 -114 -173
-4 -56 -1 -70 23 -110 45 -78 135 -123 293 -147 l72 -10 0 -73 c0 -67 -2 -73
-26 -86 -39 -20 -119 -112 -145 -166 -20 -40 -24 -63 -24 -143 0 -79 4 -102
23 -138 29 -55 89 -98 158 -113 74 -17 218 8 329 57 l80 35 390 25 c388 26
390 26 485 8 131 -26 381 -26 462 -1 72 22 134 69 173 131 24 40 30 62 33 122
5 87 -7 128 -54 182 -63 74 -181 126 -346 152 l-78 13 -2 93 c-1 52 -2 101 -2
111 -1 13 18 20 99 33 287 48 435 156 435 317 0 100 -56 169 -167 203 l-58 18
40 17 c22 9 80 33 129 52 101 41 131 73 122 132 -6 40 -27 65 -67 81 -25 11
-38 9 -90 -10 -83 -30 -87 -17 -6 19 72 33 87 51 87 109 0 54 -38 92 -91 92
l-39 0 0 43 c0 62 -34 213 -64 287 -37 91 -94 183 -165 267 l-61 73 0 83 c0
96 -26 200 -73 295 -50 101 -74 124 -132 128 -28 2 -73 -3 -101 -10z m-1339
-361 c76 -20 143 -57 211 -117 64 -55 57 -55 254 -32 74 8 169 17 210 20 l75
5 35 -52 c127 -190 436 -312 712 -279 51 6 102 11 113 13 14 1 27 -13 51 -63
45 -89 67 -188 68 -294 l1 -89 -60 -24 c-98 -39 -127 -92 -90 -163 9 -17 17
-30 18 -30 1 0 19 -6 40 -14 l38 -13 -51 -76 c-28 -42 -77 -99 -108 -127 -66
-58 -190 -123 -277 -145 -102 -24 -797 -88 -900 -82 -152 9 -284 69 -404 182
l-73 70 30 12 c72 30 95 112 44 163 -26 26 -100 50 -152 50 -32 0 -43 39 -48
167 -7 190 26 309 128 459 26 39 51 80 54 91 3 11 -3 48 -14 84 -23 69 -30
176 -17 252 10 55 16 57 112 32z m1866 -1512 c29 -29 -58 -76 -196 -108 -34
-8 -111 -19 -171 -24 -105 -9 -110 -11 -138 -42 l-29 -32 7 -176 c10 -279 15
-311 46 -342 22 -22 39 -28 96 -33 113 -10 233 -37 288 -65 48 -25 51 -28 51
-65 0 -51 -29 -73 -115 -87 -76 -12 -164 -6 -311 22 l-106 20 -429 -30 -429
-30 -77 -36 c-87 -40 -200 -69 -235 -60 -50 12 -38 106 20 164 19 18 56 47 83
64 27 18 54 43 61 57 9 17 13 77 13 188 0 238 -5 246 -185 256 -111 6 -209 30
-202 49 5 18 71 52 144 76 62 20 67 21 116 5 102 -32 269 -29 672 11 394 38
467 50 577 96 67 27 201 109 214 131 9 14 220 6 235 -9z"/>
<path d="M2891 3146 c-68 -38 -64 -146 6 -175 34 -13 178 -41 215 -41 65 0
116 59 103 119 -11 50 -46 72 -147 92 -112 22 -145 23 -177 5z"/>
<path d="M1956 3042 c-112 -42 -141 -68 -139 -129 1 -49 48 -93 97 -93 53 0
197 58 229 91 46 50 32 126 -30 158 -32 16 -48 14 -157 -27z"/>
<path d="M2511 2904 c-68 -7 -126 -16 -129 -19 -3 -3 2 -21 11 -40 23 -47 70
-75 129 -75 39 0 54 6 82 31 44 38 71 124 38 118 -4 -1 -63 -8 -131 -15z"/>
<path d="M3970 4243 c-30 -13 -290 -214 -300 -232 -44 -84 50 -183 133 -139
39 20 266 198 282 221 24 34 19 82 -12 117 -28 30 -74 45 -103 33z"/>
<path d="M4070 3804 c-41 -7 -106 -18 -145 -25 -110 -18 -152 -78 -110 -158
27 -53 55 -56 237 -27 90 15 177 34 194 42 60 30 73 107 25 155 -34 34 -74 36
-201 13z"/>
<path d="M1018 1521 c-117 -22 -153 -32 -172 -50 -70 -66 -23 -171 76 -171 43
0 317 49 337 60 35 18 54 50 54 92 0 34 -6 47 -32 70 -39 35 -66 35 -263 -1z"/>
<path d="M1315 1248 c-33 -19 -218 -159 -252 -191 -38 -36 -49 -77 -33 -118
22 -51 97 -75 145 -46 67 40 267 202 276 223 17 46 10 75 -25 110 -36 36 -73
43 -111 22z"/>
<path d="M1563 992 c-12 -9 -60 -83 -107 -164 -97 -167 -107 -205 -61 -251 34
-33 72 -40 114 -19 47 24 210 298 211 355 0 78 -97 127 -157 79z"/>
</g>
</svg>
