<?xml version="1.0" encoding="utf-8"?>
<svg xmlns="http://www.w3.org/2000/svg" viewBox="0 0 500 500" xmlns:bx="https://boxy-svg.com">
  <defs>
    <linearGradient gradientUnits="userSpaceOnUse" bx:pinned="true" id="color-0">
      <stop style="stop-color: #222831;"/>
    </linearGradient>
    <linearGradient gradientUnits="userSpaceOnUse" bx:pinned="true" id="color-1">
      <stop style="stop-color: #393e46;"/>
    </linearGradient>
    <linearGradient gradientUnits="userSpaceOnUse" bx:pinned="true" id="color-2">
      <stop style="stop-color: #00adb5;"/>
    </linearGradient>
    <linearGradient gradientUnits="userSpaceOnUse" bx:pinned="true" id="color-3">
      <stop style="stop-color: #eeeeee;"/>
    </linearGradient>
  </defs>
  <g>
    <path d="M 306.33 104.043 L 305.779 128.239 C 305.761 129.028 305.697 129.771 305.593 130.463 L 305.593 141.216 L 305.541 141.186 L 305.541 212.886 L 367.351 212.886 L 367.351 184.069 C 367.351 179.614 365.561 176.194 361.98 173.806 L 351.673 167.94 C 346.873 165.208 343.144 157.934 343.344 151.693 L 344.147 126.603 C 344.347 120.362 348.4 117.518 353.2 120.25 L 355.19 121.383 L 355.19 121.246 L 371.811 130.842 L 384.16 137.87 L 384.16 137.859 L 395.419 144.3 C 395.943 144.6 396.453 144.953 396.948 145.354 L 401.106 147.755 C 406.665 150.964 409.444 155.777 409.444 162.196 L 409.444 335.5 C 409.444 341.919 406.665 346.732 401.106 349.942 L 394.322 353.859 C 393.854 354.231 393.372 354.562 392.879 354.844 L 381.62 361.285 L 381.62 361.274 L 371.648 366.949 L 355.625 376.2 L 355.625 376.068 L 350.66 378.894 C 345.86 381.626 341.807 378.782 341.607 372.541 L 340.804 347.451 C 340.604 341.21 344.333 333.936 349.133 331.204 L 361.952 323.908 C 365.551 321.518 367.351 318.093 367.351 313.627 L 367.351 254.351 L 305.541 254.351 L 305.541 275.418 C 305.541 280.941 301.064 285.417 295.541 285.418 L 274.076 285.418 C 268.553 285.418 264.076 280.941 264.076 275.418 L 264.076 237.154 C 263.955 236.3 263.892 235.452 263.892 234.62 L 263.892 79.549 C 263.892 73.096 267.723 70.18 272.45 73.037 L 277.279 75.956 L 278.295 76.548 L 278.295 76.57 L 279.747 77.448 L 289.453 83.174 L 289.453 83.232 L 300.609 89.69 C 303.907 91.597 306.468 98.023 306.33 104.043 Z M 242.436 395.578 L 241.636 420.668 C 241.436 426.909 237.376 429.753 232.576 427.021 L 196.586 406.534 C 196.026 406.215 195.476 405.835 194.956 405.402 L 98.886 349.942 C 93.336 346.732 90.556 341.919 90.556 335.5 L 90.556 162.196 C 90.556 155.777 93.336 150.964 98.886 147.755 L 211.356 82.823 L 227.546 73.037 C 232.276 70.18 236.106 73.096 236.106 79.549 L 236.106 234.62 C 236.106 235.452 236.046 236.3 235.916 237.154 L 235.916 275.418 C 235.916 280.941 231.446 285.418 225.916 285.418 L 204.456 285.418 C 198.936 285.417 194.456 280.941 194.456 275.418 L 194.456 254.351 L 132.646 254.351 L 132.646 313.627 C 132.646 318.426 134.726 322.023 138.876 324.425 L 217.866 370.025 L 217.866 370.086 L 234.106 379.331 C 238.906 382.063 242.636 389.337 242.436 395.578 Z M 138.876 173.271 C 134.726 175.671 132.646 179.27 132.646 184.069 L 132.646 212.886 L 194.456 212.886 L 194.456 141.186 L 138.876 173.271 Z M 266.156 378.972 L 282.399 369.727 L 282.399 369.666 L 298.643 360.288 L 298.643 360.244 L 308.375 354.677 C 313.175 351.93 317.228 354.789 317.428 361.062 L 318.231 386.281 C 318.431 392.554 314.702 399.866 309.902 402.612 L 298.643 409.053 L 298.643 409.042 L 267.683 426.662 C 262.883 429.394 258.83 426.55 258.63 420.309 L 257.827 395.219 C 257.627 388.978 261.356 381.704 266.156 378.972 Z" style="fill: rgb(128, 128, 128); stroke-width: 1; stroke-linecap: round; stroke-miterlimit: 30; stroke-linejoin: round; transform-box: fill-box; transform-origin: 50% 50%;">
      <animate attributeName="color-interpolation" values="sRGB" begin="2.52s" dur="2s" fill="freeze" calcMode="discrete" keyTimes="0"/>
      <animateTransform type="skewX" additive="sum" attributeName="transform" values="0;0;0" begin="-0.38s" dur="5.4s" fill="freeze" keyTimes="0; 1; 1"/>
      <animate attributeName="fill" values="rgb(50.196% 50.196% 50.196%);rgb(100% 22.745% 22.745%);#02ffde;rgb(100% 0% 0%)" begin="13.39s" dur="2s" fill="freeze" keyTimes="0; 0; 0.505035; 1"/>
    </path>
  </g>
</svg>